<svg xmlns="http://www.w3.org/2000/svg"  viewBox="0 0 100 100" width="400px" height="400px"><path fill="#8b8bc1" d="M77,32L77,32H23h-5v5l5,5v33.308C23,82.288,28.295,86,34.766,86h30.269	C71.616,86,77,82.288,77,75.308V41.917L82,37v-5H77z"/><path fill="#1f212b" d="M65.035,87H34.766C27.13,87,22,82.301,22,75.308V42.414l-4.707-4.707C17.105,37.52,17,37.265,17,37	v-5c0-0.552,0.448-1,1-1h64c0.552,0,1,0.448,1,1v5c0,0.268-0.108,0.525-0.299,0.713L78,42.336v32.972C78,82.301,72.79,87,65.035,87z M19,36.586l4.707,4.707C23.895,41.48,24,41.735,24,42v33.308C24,82.461,29.8,85,34.766,85h30.269C70.093,85,76,82.461,76,75.308	V41.917c0-0.268,0.108-0.525,0.299-0.713L81,36.581V33H19V36.586z"/><path fill="#6869ad" d="M29.5,60.5V42.917c0-1.375,1.125-2.5,2.5-2.5l0,0c1.375,0,2.5,1.125,2.5,2.5v16.75v14.25	c0,1.375-1.125,2.5-2.5,2.5l0,0c-1.375,0-2.5-1.125-2.5-2.5V70.5V60.5z"/><path fill="#1f212b" d="M32,76.917c-1.654,0-3-1.346-3-3V70.5c0-0.276,0.224-0.5,0.5-0.5s0.5,0.224,0.5,0.5v3.417	c0,1.103,0.897,2,2,2s2-0.897,2-2v-31c0-1.103-0.897-2-2-2s-2,0.897-2,2V60.5c0,0.276-0.224,0.5-0.5,0.5S29,60.776,29,60.5V42.917	c0-1.654,1.346-3,3-3s3,1.346,3,3v31C35,75.571,33.654,76.917,32,76.917z"/><path fill="#1f212b" d="M29.5,66c-0.276,0-0.5-0.224-0.5-0.5v-3c0-0.276,0.224-0.5,0.5-0.5s0.5,0.224,0.5,0.5v3	C30,65.776,29.776,66,29.5,66z"/><path fill="#6869ad" d="M44,76.5L44,76.5c-1.375,0-2.5-1.125-2.5-2.5V43c0-1.375,1.125-2.5,2.5-2.5l0,0	c1.375,0,2.5,1.125,2.5,2.5v31C46.5,75.375,45.375,76.5,44,76.5z"/><path fill="#1f212b" d="M44,77c-1.654,0-3-1.346-3-3V43c0-1.654,1.346-3,3-3s3,1.346,3,3v31C47,75.654,45.654,77,44,77z M44,41c-1.103,0-2,0.897-2,2v31c0,1.103,0.897,2,2,2s2-0.897,2-2V43C46,41.897,45.103,41,44,41z"/><path fill="#6869ad" d="M56,76.5L56,76.5c-1.375,0-2.5-1.125-2.5-2.5V43c0-1.375,1.125-2.5,2.5-2.5l0,0	c1.375,0,2.5,1.125,2.5,2.5v31C58.5,75.375,57.375,76.5,56,76.5z"/><path fill="#1f212b" d="M56,77c-1.654,0-3-1.346-3-3V43c0-1.654,1.346-3,3-3s3,1.346,3,3v31C59,75.654,57.654,77,56,77z M56,41c-1.103,0-2,0.897-2,2v31c0,1.103,0.897,2,2,2s2-0.897,2-2V43C58,41.897,57.103,41,56,41z"/><path fill="#6869ad" d="M68,76.5L68,76.5c-1.375,0-2.5-1.125-2.5-2.5V43c0-1.375,1.125-2.5,2.5-2.5l0,0	c1.375,0,2.5,1.125,2.5,2.5v31C70.5,75.375,69.375,76.5,68,76.5z"/><path fill="#1f212b" d="M68,77c-1.654,0-3-1.346-3-3V43c0-1.654,1.346-3,3-3s3,1.346,3,3v31C71,75.654,69.654,77,68,77z M68,41c-1.103,0-2,0.897-2,2v31c0,1.103,0.897,2,2,2s2-0.897,2-2V43C70,41.897,69.103,41,68,41z"/><path fill="#a3a3cd" d="M82,32v-0.237C82,24.749,79.127,21,70.727,21H29.273C20.873,21,18,24.749,18,31.763V32H82z"/><path fill="#1f212b" d="M82,33H18c-0.552,0-1-0.448-1-1v-0.237C17,23.628,20.785,20,29.272,20h41.455	C79.215,20,83,23.628,83,31.763V32C83,32.552,82.552,33,82,33z M19.013,31h61.975c-0.216-6.38-3.237-9-10.26-9H29.272	C22.25,22,19.229,24.62,19.013,31z"/><path fill="#1f212b" d="M81.5,36h-63c-0.276,0-0.5-0.224-0.5-0.5s0.224-0.5,0.5-0.5h63c0.276,0,0.5,0.224,0.5,0.5	S81.776,36,81.5,36z"/><path fill="#1f212b" d="M75.5,82h-50c-0.276,0-0.5-0.224-0.5-0.5s0.224-0.5,0.5-0.5h50c0.276,0,0.5,0.224,0.5,0.5	S75.776,82,75.5,82z"/><path fill="#1f212b" d="M63,22H37c-0.552,0-1-0.448-1-1v-2.646C36,15.401,38.309,13,41.146,13h17.708	C61.691,13,64,15.401,64,18.354V21C64,21.552,63.552,22,63,22z M38,20h24v-1.646C62,16.504,60.589,15,58.854,15H41.146	C39.411,15,38,16.504,38,18.354V20z"/><path fill="#1f212b" d="M72.5,29h-54c-0.276,0-0.5-0.224-0.5-0.5s0.224-0.5,0.5-0.5h54c0.276,0,0.5,0.224,0.5,0.5	S72.776,29,72.5,29z"/><path fill="#1f212b" d="M77,58.917c-0.552,0-1-0.448-1-1v-12c0-0.552,0.448-1,1-1c2.757,0,5,2.243,5,5v4	C82,56.673,79.757,58.917,77,58.917z M78,47.088v9.657c1.164-0.413,2-1.525,2-2.829v-4C80,48.613,79.164,47.5,78,47.088z"/><path fill="#1f212b" d="M23,58.917c-2.757,0-5-2.243-5-5v-4c0-2.757,2.243-5,5-5c0.552,0,1,0.448,1,1v12	C24,58.469,23.552,58.917,23,58.917z M22,47.088c-1.164,0.413-2,1.525-2,2.829v4c0,1.304,0.836,2.416,2,2.829V47.088z"/><path fill="#1f212b" d="M78.5,29h-3c-0.276,0-0.5-0.224-0.5-0.5s0.224-0.5,0.5-0.5h3c0.276,0,0.5,0.224,0.5,0.5	S78.776,29,78.5,29z"/></svg>